<svg data-v-423bf9ae="" xmlns="http://www.w3.org/2000/svg" viewBox="0 0 437 90" class="iconLeft"><!----><!----><!----><g data-v-423bf9ae="" id="1dcc8773-644b-4582-a0a5-a4d39267fc20" fill="#0C203C" transform="matrix(4.979253427292024,0,0,4.979253427292024,105.81742837767288,-3.7717838954077365)"><path d="M5.22 5.95L5.22 13.61L7.06 13.61C7.25 13.61 7.41 13.73 7.41 13.89L7.41 15.53C7.41 15.68 7.25 15.81 7.06 15.81L1.12 15.81C0.97 15.81 0.84 15.68 0.84 15.53L0.84 13.89C0.84 13.73 0.97 13.61 1.12 13.61L3.02 13.61L3.02 5.95L1.12 5.95C0.97 5.95 0.84 5.84 0.84 5.68L0.84 4.05C0.84 3.89 0.97 3.77 1.12 3.77L7.06 3.77C7.25 3.77 7.41 3.89 7.41 4.05L7.41 5.68C7.41 5.84 7.25 5.95 7.06 5.95ZM9.09 3.79L13.66 8.37L18.24 3.79L18.24 15.54C18.24 15.69 18.13 15.82 17.98 15.82L16.37 15.82C16.21 15.82 16.09 15.69 16.09 15.54L16.09 8.99L13.66 11.41L11.24 8.99L11.24 15.54C11.24 15.69 11.13 15.82 10.98 15.82L9.35 15.82C9.21 15.82 9.09 15.69 9.09 15.54ZM27.36 11.16C27.36 11.00 27.23 10.89 27.08 10.89L26.15 10.89L24.44 4.05L24.43 3.98C24.39 3.88 24.29 3.81 24.18 3.81L22.34 3.81C22.23 3.81 22.13 3.88 22.09 3.98L22.08 4.06L19.24 15.41C19.24 15.43 19.24 15.44 19.22 15.44L19.22 15.50C19.22 15.67 19.35 15.79 19.49 15.79L21.18 15.79C21.29 15.79 21.41 15.71 21.43 15.60C21.43 15.58 21.45 15.57 21.45 15.57L22.06 13.06L24.46 13.06L25.07 15.55L25.09 15.60C25.13 15.71 25.23 15.79 25.34 15.79L27.03 15.79C27.19 15.79 27.30 15.67 27.30 15.50L27.30 15.47L27.29 15.40L26.70 13.06L27.08 13.06C27.23 13.06 27.36 12.95 27.36 12.80ZM22.61 10.89L23.27 8.30L23.91 10.89ZM38.47 8.79C38.43 8.74 38.37 8.71 38.30 8.71L34.47 8.71C34.31 8.71 34.20 8.83 34.20 8.99L34.20 10.63C34.20 10.78 34.31 10.89 34.47 10.89L36.39 10.89L36.39 12.95C34.72 14.11 32.41 13.76 31.16 12.12C29.88 10.44 30.20 8.04 31.88 6.76C33.21 5.75 34.99 5.74 36.30 6.61C36.40 6.66 36.53 6.66 36.61 6.59L37.97 5.56C38.09 5.46 38.11 5.29 38.01 5.17C38.01 5.15 38.00 5.14 37.98 5.12L37.94 5.10C35.84 3.42 32.79 3.32 30.56 5.03C27.92 7.04 27.41 10.82 29.43 13.45C31.08 15.62 33.95 16.35 36.39 15.41C36.90 15.20 37.39 14.94 37.86 14.59C38.08 14.41 38.29 14.22 38.49 14.03L38.49 14.01C38.54 13.97 38.57 13.90 38.57 13.82L38.57 8.99C38.57 8.90 38.54 8.85 38.47 8.79ZM48.45 15.54C48.45 15.69 48.33 15.82 48.19 15.82L40.53 15.82C40.38 15.82 40.25 15.69 40.25 15.54L40.25 4.06C40.25 3.91 40.38 3.78 40.53 3.78L47.91 3.78C48.06 3.78 48.19 3.91 48.19 4.06L48.19 5.70C48.19 5.85 48.06 5.96 47.91 5.96L42.43 5.96L42.43 8.71L47.63 8.71C47.78 8.71 47.91 8.82 47.91 8.97L47.91 10.61C47.91 10.77 47.78 10.89 47.63 10.89L42.43 10.89L42.43 13.62L48.19 13.62C48.33 13.62 48.45 13.75 48.45 13.90ZM58.13 11.16C58.13 11.00 58.00 10.89 57.85 10.89L56.92 10.89L55.22 4.05L55.20 3.98C55.16 3.88 55.06 3.81 54.95 3.81L53.12 3.81C53.00 3.81 52.91 3.88 52.86 3.98L52.85 4.06L50.01 15.41C50.01 15.43 50.01 15.44 49.99 15.44L49.99 15.50C49.99 15.67 50.12 15.79 50.26 15.79L51.95 15.79C52.07 15.79 52.18 15.71 52.21 15.60C52.21 15.58 52.22 15.57 52.22 15.57L52.84 13.06L55.23 13.06L55.85 15.55L55.86 15.60C55.90 15.71 56 15.79 56.11 15.79L57.81 15.79C57.96 15.79 58.07 15.67 58.07 15.50L58.07 15.47L58.06 15.40L57.47 13.06L57.85 13.06C58.00 13.06 58.13 12.95 58.13 12.80ZM53.38 10.89L54.04 8.30L54.68 10.89ZM64.19 5.95L64.19 13.61L66.02 13.61C66.22 13.61 66.37 13.73 66.37 13.89L66.37 15.53C66.37 15.68 66.22 15.81 66.02 15.81L60.09 15.81C59.93 15.81 59.81 15.68 59.81 15.53L59.81 13.89C59.81 13.73 59.93 13.61 60.09 13.61L61.99 13.61L61.99 5.95L60.09 5.95C59.93 5.95 59.81 5.84 59.81 5.68L59.81 4.05C59.81 3.89 59.93 3.77 60.09 3.77L66.02 3.77C66.22 3.77 66.37 3.89 66.37 4.05L66.37 5.68C66.37 5.84 66.22 5.95 66.02 5.95Z"></path></g><defs data-v-423bf9ae=""><linearGradient data-v-423bf9ae="" gradientTransform="rotate(25)" id="bb34fbc8-9960-4f45-8e43-e6af80f0ccdf" x1="0%" y1="0%" x2="100%" y2="0%"><stop data-v-423bf9ae="" offset="0%" style="stop-color: rgb(40, 139, 88); stop-opacity: 1;"></stop><stop data-v-423bf9ae="" offset="100%" style="stop-color: rgb(21, 34, 241); stop-opacity: 1;"></stop></linearGradient></defs><g data-v-423bf9ae="" id="2598428e-7997-48b5-85ed-a3e9f3b4b873" transform="matrix(2.8125,0,0,2.8125,0,0)" stroke="none" fill="url(#bb34fbc8-9960-4f45-8e43-e6af80f0ccdf)"><path d="M9.663 12.988L12.675 16l-6.338 6.337 3.326 3.326L16 19.325l3.012 3.012-6.337 6.338L16 32l6.337-6.337 3.326-3.326L32 16l-3.325-3.325-6.338 6.337L19.325 16l6.338-6.337-3.326-3.326L16 12.675l-3.012-3.012 6.337-6.338L16 0 9.663 6.337 6.337 9.663 0 16l3.325 3.325z"></path></g><!----></svg>